<svg xmlns="http://www.w3.org/2000/svg" viewBox="0 0 512 512" role="img" aria-label="Discord">
  <path fill="#5865F2" d="M106 115c56-25 114-35 170-35s114 10 170 35c47 70 68 150 72 231-43 31-85 50-126 62-10-14-20-30-28-46 16-6 31-13 45-23-4-3-8-6-12-10-43 21-90 32-135 32s-92-11-135-32c-4 4-8 7-12 10 14 10 29 17 45 23-8 16-18 32-28 46-41-12-83-31-126-62 4-81 25-161 72-231Zm107 214c20 0 37-19 37-42s-17-42-37-42-37 19-37 42 17 42 37 42Zm192 0c20 0 37-19 37-42s-17-42-37-42-37 19-37 42 17 42 37 42Z"/>
</svg>
