<svg width="1200" height="640" viewBox="0 0 1200 640" xmlns="http://www.w3.org/2000/svg" role="img" aria-label="Vercel Production">
  <defs>
    <linearGradient id="bg" x1="0" y1="0" x2="1" y2="1">
      <stop offset="0%" stop-color="#fff8dc"/>
      <stop offset="100%" stop-color="#ffffff"/>
    </linearGradient>
    <pattern id="grid" width="32" height="32" patternUnits="userSpaceOnUse">
      <path d="M 32 0 L 0 0 0 32" fill="none" stroke="#111" stroke-opacity="0.08" stroke-width="1"/>
    </pattern>
  </defs>
  <rect x="0" y="0" width="1200" height="640" fill="url(#bg)"/>
  <rect x="0" y="0" width="1200" height="640" fill="url(#grid)"/>
  <rect x="90" y="80" width="1020" height="460" rx="18" fill="#fff" stroke="#000" stroke-width="6"/>
  <rect x="115" y="105" width="1020" height="460" rx="18" fill="#000" opacity="0.16"/>
  <rect x="140" y="130" width="950" height="390" rx="14" fill="#ffffff" stroke="#000" stroke-width="4"/>
  <rect x="170" y="165" width="210" height="42" rx="21" fill="#0f172a" stroke="#000" stroke-width="3"/>
  <text x="275" y="193" text-anchor="middle" font-family="Arial, sans-serif" font-size="16" font-weight="700" fill="#fff">NO CODE ONLY VIBES</text>
  <text x="170" y="265" font-family="Arial, sans-serif" font-size="56" font-weight="900" fill="#0f172a">Vercel Production</text>
  <text x="170" y="312" font-family="Arial, sans-serif" font-size="22" font-weight="600" fill="#334155">Visual Example - Lesson Focus Card</text>
  <rect x="170" y="350" width="770" height="120" rx="12" fill="#fff7ed" stroke="#000" stroke-width="3"/>
  <text x="195" y="390" font-family="Arial, sans-serif" font-size="20" font-weight="700" fill="#111827">PENERANGAN IJAM</text>
  <text x="195" y="425" font-family="Arial, sans-serif" font-size="18" fill="#334155">This card illustrates the vibe and visual direction for this lesson topic.</text>
  <circle cx="1020" cy="420" r="54" fill="#0f172a" stroke="#000" stroke-width="4"/>
  <path d="M1000 420 L1016 436 L1045 404" fill="none" stroke="#fff" stroke-width="8" stroke-linecap="round" stroke-linejoin="round"/>
</svg>
